#!OML:ASF F:\twosubjects\two\Thursday\Session 1\Rory.ASF
:FULLY-SPECIFIED
:DEGREES
472
root 11.7321 18.4684 -9.32548 -0.382448 55.5899 -2.60721
lowerback 1.68206 -1.73205 -6.65999
upperback 4.36328 -2.0906 -3.19547
thorax 3.70405 -1.16813 0.38374
lowerneck 4.12935 -14.8151 -14.7486
upperneck 22.7197 -21.7645 9.73332
head 9.21943 -10.8577 3.75053
rclavicle -7.31528e-014 7.95139e-015
rhumerus 7.48638 -40.8962 -49.2661
rradius 58.0961
rwrist 35.6842
rhand 1.54133 16.7177
rfingers 7.12502
rthumb 27.0659 -11.3624
lclavicle -7.31528e-014 7.95139e-015
lhumerus -27.744 7.01107 74.1452
lradius 23.9507
lwrist -28.8746
lhand -6.69798 28.5602
lfingers 7.12502
lthumb 19.1613 57.6363
rfemur -20.6527 8.3188 6.88444
rtibia 35.484
rfoot -2.42819 -5.10299
rtoes -17.8824
lfemur -3.52181 -0.337772 -20.5346
ltibia 15.3465
lfoot -13.836 15.6017
ltoes 14.4217
473
root 11.7496 18.4607 -9.33409 0.00511421 55.5396 -2.35993
lowerback 1.71364 -1.58298 -6.53518
upperback 4.3026 -1.89389 -3.34725
thorax 3.60086 -1.05915 0.165231
lowerneck 4.06586 -15.0269 -14.0917
upperneck 22.3299 -22.0185 9.6566
head 9.03648 -10.9387 3.60894
rclavicle -7.95139e-015 -2.22639e-014
rhumerus 6.64536 -40.9907 -48.9457
rradius 59.1609
rwrist 36.2832
rhand 2.1648 16.966
rfingers 7.12502
rthumb 27.6622 -11.02
lclavicle -7.95139e-015 -2.22639e-014
lhumerus -27.6086 6.23832 74.03
lradius 24.0276
lwrist -28.0542
lhand -7.81184 28.2874
lfingers 7.12502
lthumb 18.0899 57.4662
rfemur -21.0098 7.89924 6.76285
rtibia 35.5749
rfoot -2.9801 -5.01494
rtoes -18.5686
lfemur -3.83831 -0.0771355 -20.7395
ltibia 15.6308
lfoot -13.9127 15.3374
ltoes 14.2909
474
root 11.7693 18.4548 -9.34217 0.183261 55.4754 -2.18443
lowerback 1.87136 -1.59811 -6.4795
upperback 4.23189 -1.93402 -3.36325
thorax 3.43672 -1.07267 0.12438
lowerneck 4.19654 -15.007 -14.2105
upperneck 21.9115 -22.0383 9.96028
head 8.91989 -10.9505 3.73767
rclavicle 3.57812e-015 -2.22639e-014
rhumerus 5.88494 -40.0723 -48.4065
rradius 60.1791
rwrist 36.2752
rhand 3.41273 16.9149
rfingers 7.12502
rthumb 28.8549 -10.8738
lclavicle 3.57812e-015 -2.22639e-014
lhumerus -27.7461 6.88393 73.6318
lradius 24.0291
lwrist -28.0104
lhand -8.08556 27.8629
lfingers 7.12502
lthumb 17.8265 57.0658
rfemur -21.1845 7.41176 6.75354
rtibia 35.6308
rfoot -3.28308 -4.75508
rtoes -19.3376
lfemur -3.90859 0.181878 -20.909
ltibia 15.7748
lfoot -13.9566 15.2414
ltoes 13.5566
475
root 11.7905 18.453 -9.34957 0.443999 55.4549 -1.89257
lowerback 1.82325 -1.71493 -6.57406
upperback 4.30844 -2.07789 -3.37162
thorax 3.55568 -1.15029 0.161313
lowerneck 4.21258 -14.9014 -14.3663
upperneck 21.445 -21.9352 10.3253
head 8.8011 -10.8999 3.89901
rclavicle -3.53837e-014 4.13472e-014
rhumerus 5.3496 -38.888 -47.9879
rradius 60.9532
rwrist 36.1745
rhand 3.97 16.7983
rfingers 7.12502
rthumb 29.3871 -10.8982
lclavicle -3.53837e-014 4.13472e-014
lhumerus -27.902 7.44046 73.2703
lradius 24.259
lwrist -27.8077
lhand -8.16522 27.6026
lfingers 7.12502
lthumb 17.7499 56.8125
rfemur -21.2894 7.11724 6.65919
rtibia 35.6484
rfoot -3.74165 -4.74698
rtoes -18.0369
lfemur -3.85911 0.487881 -21.1352
ltibia 15.702
lfoot -14.0463 15.0075
ltoes 14.1974
476
root 11.8098 18.452 -9.35645 0.972683 55.3677 -1.34791
lowerback 1.72695 -1.79805 -6.78576
upperback 4.40143 -2.1681 -3.41027
thorax 3.72144 -1.20537 0.229739
lowerneck 3.86397 -14.835 -14.242
upperneck 21.1658 -21.7895 10.3247
head 8.72716 -10.8138 3.8786
rclavicle -6.83819e-014 -4.6118e-014
rhumerus 5.07647 -37.8775 -47.697
rradius 61.4472
rwrist 36.2797
rhand 3.56695 16.9857
rfingers 7.12502
rthumb 29.0022 -10.7777
lclavicle -6.83819e-014 -4.6118e-014
lhumerus -28.0083 7.63642 73.0838
lradius 24.567
lwrist -27.3628
lhand -7.52625 27.8913
lfingers 7.12502
lthumb 18.3646 57.0444
rfemur -21.5206 7.00231 6.3743
rtibia 35.6183
rfoot -4.33238 -4.77753
rtoes -16.348
lfemur -3.8259 0.419825 -21.5468
ltibia 15.5424
lfoot -14.1769 15.0077
ltoes 15.2885
477
root 11.8294 18.4566 -9.35974 1.24113 55.1842 -1.11146
lowerback 1.9477 -1.87316 -6.9235
upperback 4.31539 -2.30034 -3.30013
thorax 3.52505 -1.27297 0.427544
lowerneck 3.50638 -14.7539 -14.2976
upperneck 21.0022 -21.6095 10.2261
head 8.70148 -10.7273 3.85109
rclavicle 8.11041e-014 -2.70347e-014
rhumerus 4.89364 -36.6091 -47.2695
rradius 61.7728
rwrist 36.1531
rhand 2.70018 16.7228
rfingers 7.12502
rthumb 28.174 -11.18
lclavicle 8.11041e-014 -2.70347e-014
lhumerus -28.377 8.09877 72.9146
lradius 24.8237
lwrist -26.9933
lhand -6.77061 28.4445
lfingers 7.12502
lthumb 19.0914 57.5275
rfemur -21.7901 6.97585 6.25789
rtibia 35.5058
rfoot -5.05541 -4.80943
rtoes -14.5564
lfemur -3.78268 0.274166 -21.777
ltibia 15.4208
lfoot -14.2495 15.2463
ltoes 15.2246
478
root 11.8477 18.4586 -9.35656 1.27855 55.0739 -1.24254
lowerback 1.94872 -1.93262 -6.9747
upperback 4.30312 -2.38836 -3.12464
thorax 3.52683 -1.32311 0.635614
lowerneck 3.394 -14.7197 -14.3317
upperneck 20.6074 -21.539 10.3194
head 8.58884 -10.6933 3.89216
rclavicle 3.29983e-014 -5.08889e-014
rhumerus 4.70904 -35.6616 -46.935
rradius 62.0491
rwrist 36.2586
rhand 1.35221 16.2862
rfingers 7.12502
rthumb 26.8849 -11.822
lclavicle 3.29983e-014 -5.08889e-014
lhumerus -28.6823 7.78323 72.951
lradius 25.1608
lwrist -25.9302
lhand -6.84633 28.5221
lfingers 7.12502
lthumb 19.0186 57.6123
rfemur -22.0042 6.9999 6.40731
rtibia 35.2807
rfoot -5.78944 -5.04202
rtoes -12.879
lfemur -3.83604 0.401567 -21.7253
ltibia 15.3411
lfoot -14.0723 15.3513
ltoes 14.5269
